<svg width="393" height="61" viewBox="0 0 393 61" fill="none" xmlns="http://www.w3.org/2000/svg">
<path d="M36.2861 12.5488C36.2002 11.7539 36.0928 11.0771 35.9639 10.5186C35.835 9.93848 35.6846 9.44434 35.5127 9.03613C35.3408 8.60645 35.1475 8.25195 34.9326 7.97266C34.7393 7.67188 34.5137 7.39258 34.2559 7.13477C33.5684 6.4043 32.7627 5.86719 31.8389 5.52344C30.9365 5.1582 29.7549 4.97559 28.2939 4.97559H22.1064V38.3623C22.1064 39.7373 22.1816 40.8438 22.332 41.6816C22.5039 42.5195 22.7295 43.1104 23.0088 43.4541C23.7607 44.335 25.0068 44.7754 26.7471 44.7754H28.2939V46H9.73145V44.7754H11.3105C12.2773 44.7754 13.0615 44.6572 13.6631 44.4209C14.2861 44.1631 14.8125 43.7227 15.2422 43.0996C15.4785 42.7773 15.6504 42.2295 15.7578 41.4561C15.8652 40.6826 15.9189 39.6514 15.9189 38.3623V4.97559H10.6982C9.81738 4.97559 9.07617 4.99707 8.47461 5.04004C7.87305 5.08301 7.34668 5.16895 6.89551 5.29785C6.44434 5.40527 6.05762 5.54492 5.73535 5.7168C5.41309 5.88867 5.09082 6.10352 4.76855 6.36133C4.0166 6.98438 3.4043 7.80078 2.93164 8.81055C2.45898 9.82031 2.1582 11.0664 2.0293 12.5488H0.579102L1.0625 2.30078H37.3174L37.6719 12.5488H36.2861ZM59.9404 25.7617C59.9404 24.1289 59.7041 22.8076 59.2314 21.7979C58.7588 20.7666 58.1895 19.9609 57.5234 19.3809C56.8574 18.8008 56.1592 18.4033 55.4287 18.1885C54.6982 17.9736 54.0645 17.8662 53.5273 17.8662C52.6465 17.8662 51.7979 18.0381 50.9814 18.3818C50.165 18.7256 49.4238 19.2305 48.7578 19.8965C48.0918 20.5625 47.5332 21.3896 47.082 22.3779C46.6309 23.3662 46.3408 24.4941 46.2119 25.7617H59.9404ZM66.6758 35.2041C66.4609 36.6436 66.0205 38.0723 65.3545 39.4902C64.71 40.8867 63.8613 42.1436 62.8086 43.2607C61.7773 44.3564 60.5635 45.248 59.167 45.9355C57.7705 46.623 56.2236 46.9668 54.5264 46.9668C52.7861 46.9668 51.1318 46.6123 49.5635 45.9033C47.9951 45.1729 46.6201 44.1416 45.4385 42.8096C44.2783 41.4561 43.3545 39.834 42.667 37.9434C41.9795 36.0527 41.6357 33.9258 41.6357 31.5625C41.6357 29.0703 41.9688 26.8359 42.6348 24.8594C43.3223 22.8828 44.2676 21.207 45.4707 19.832C46.6953 18.457 48.1455 17.4043 49.8213 16.6738C51.4971 15.9434 53.334 15.5781 55.332 15.5781C56.9648 15.5781 58.4688 15.8574 59.8438 16.416C61.2402 16.9531 62.4434 17.7373 63.4531 18.7686C64.4629 19.7998 65.2471 21.0566 65.8057 22.5391C66.3857 24.0215 66.6758 25.6973 66.6758 27.5664H46.2119C46.2119 29.7793 46.502 31.7559 47.082 33.4961C47.6621 35.2363 48.4463 36.708 49.4346 37.9111C50.4229 39.1143 51.5615 40.0381 52.8506 40.6826C54.1611 41.3057 55.5361 41.6172 56.9756 41.6172C57.9424 41.6172 58.834 41.5098 59.6504 41.2949C60.4883 41.0586 61.2617 40.6719 61.9707 40.1348C62.6797 39.5762 63.335 38.8457 63.9365 37.9434C64.5596 37.041 65.1289 35.9131 65.6445 34.5596L66.6758 35.2041ZM105.09 46V44.7754C106.078 44.7754 106.884 44.7002 107.507 44.5498C108.13 44.3779 108.613 44.0986 108.957 43.7119C109.301 43.3252 109.526 42.8096 109.634 42.165C109.763 41.499 109.827 40.6611 109.827 39.6514V26.5674C109.827 25.2568 109.72 24.1504 109.505 23.248C109.312 22.3242 109.011 21.583 108.603 21.0244C108.216 20.4658 107.711 20.0684 107.088 19.832C106.486 19.5742 105.777 19.4453 104.961 19.4453C104.467 19.4453 103.94 19.5098 103.382 19.6387C102.823 19.7461 102.222 19.9502 101.577 20.251C100.954 20.5518 100.288 20.96 99.5791 21.4756C98.8701 21.9912 98.1182 22.6465 97.3232 23.4414V39.6514C97.3232 40.7256 97.377 41.5957 97.4844 42.2617C97.5918 42.9277 97.8066 43.4434 98.1289 43.8086C98.4727 44.1738 98.9561 44.4316 99.5791 44.582C100.202 44.7109 101.029 44.7754 102.061 44.7754V46H87.1074V44.7754C88.1387 44.7754 88.9658 44.7109 89.5889 44.582C90.2119 44.4531 90.6953 44.2061 91.0391 43.8408C91.4043 43.4756 91.6406 42.96 91.748 42.2939C91.877 41.6064 91.9414 40.7256 91.9414 39.6514V26.5674C91.9414 25.2568 91.8232 24.1504 91.5869 23.248C91.3506 22.3242 91.0176 21.583 90.5879 21.0244C90.1582 20.4443 89.6318 20.0254 89.0088 19.7676C88.3857 19.5098 87.6875 19.3809 86.9141 19.3809C86.1406 19.3809 85.3887 19.5098 84.6582 19.7676C83.9492 20.0039 83.2725 20.3154 82.6279 20.7021C82.0049 21.0889 81.4141 21.5293 80.8555 22.0234C80.2969 22.4961 79.792 22.9688 79.3408 23.4414V39.3291C79.3408 40.5752 79.4053 41.5635 79.5342 42.2939C79.6846 43.0029 79.9316 43.5508 80.2754 43.9375C80.6406 44.3027 81.1348 44.5391 81.7578 44.6465C82.3809 44.7324 83.165 44.7754 84.1104 44.7754V46H69.5117V44.7754C70.4355 44.7754 71.1875 44.7109 71.7676 44.582C72.3477 44.4316 72.7988 44.1631 73.1211 43.7764C73.4434 43.3896 73.6582 42.8418 73.7656 42.1328C73.873 41.4238 73.9268 40.4893 73.9268 39.3291V28.0176C73.9268 25.9551 73.8838 24.3115 73.7979 23.0869C73.7334 21.8623 73.4756 20.9277 73.0244 20.2832C72.8955 20.1113 72.7129 20.0039 72.4766 19.9609C72.2617 19.8965 72.0146 19.8643 71.7354 19.8643C71.1768 19.8643 70.4355 20.0254 69.5117 20.3477L68.9639 19.1875L77.9551 15.6426H79.3408V21.8623C80.5439 20.5732 81.6182 19.5312 82.5635 18.7363C83.5088 17.9199 84.3789 17.2861 85.1738 16.835C85.9688 16.3623 86.71 16.0508 87.3975 15.9004C88.1064 15.7285 88.8369 15.6426 89.5889 15.6426C90.4482 15.6426 91.2754 15.7715 92.0703 16.0293C92.8867 16.2656 93.6172 16.6416 94.2617 17.1572C94.9277 17.6514 95.4971 18.2959 95.9697 19.0908C96.4639 19.8643 96.8291 20.7881 97.0654 21.8623C98.1611 20.6162 99.1602 19.5957 100.062 18.8008C100.965 17.9844 101.824 17.3398 102.641 16.8672C103.457 16.3945 104.252 16.0723 105.025 15.9004C105.799 15.7285 106.594 15.6426 107.41 15.6426C108.592 15.6426 109.666 15.8359 110.633 16.2227C111.6 16.6094 112.416 17.2432 113.082 18.124C113.77 18.9834 114.296 20.1113 114.661 21.5078C115.026 22.8828 115.209 24.5693 115.209 26.5674V39.6514C115.209 40.79 115.273 41.6924 115.402 42.3584C115.531 43.0244 115.768 43.54 116.111 43.9053C116.455 44.2705 116.906 44.5068 117.465 44.6143C118.045 44.7217 118.786 44.7754 119.688 44.7754V46H105.09ZM130.227 35.5908C130.227 36.751 130.248 37.7178 130.291 38.4912C130.334 39.2646 130.409 39.8662 130.517 40.2959C130.667 40.8545 130.914 41.4131 131.258 41.9717C131.602 42.5303 132.053 43.0352 132.611 43.4863C133.17 43.916 133.825 44.2705 134.577 44.5498C135.329 44.8291 136.178 44.9688 137.123 44.9688C138.369 44.9688 139.519 44.7002 140.571 44.1631C141.624 43.6045 142.516 42.8203 143.246 41.8105C143.998 40.8008 144.578 39.5654 144.986 38.1045C145.416 36.6436 145.631 35 145.631 33.1738C145.631 30.7891 145.405 28.7373 144.954 27.0186C144.503 25.2998 143.891 23.8926 143.117 22.7969C142.344 21.7012 141.441 20.8955 140.41 20.3799C139.379 19.8428 138.283 19.5742 137.123 19.5742C136.479 19.5742 135.877 19.7031 135.318 19.9609C134.781 20.1973 134.233 20.541 133.675 20.9922C133.138 21.4219 132.59 21.9375 132.031 22.5391C131.473 23.1406 130.871 23.8066 130.227 24.5371V35.5908ZM150.787 30.1123C150.787 32.4326 150.454 34.6133 149.788 36.6543C149.144 38.6953 148.22 40.4893 147.017 42.0361C145.835 43.5615 144.417 44.7646 142.763 45.6455C141.108 46.5264 139.271 46.9668 137.252 46.9668C136.779 46.9668 136.274 46.9453 135.737 46.9023C135.2 46.8594 134.631 46.7412 134.029 46.5479C133.449 46.376 132.837 46.1182 132.192 45.7744C131.569 45.4092 130.914 44.915 130.227 44.292V53.2188C130.227 54.3789 130.259 55.3242 130.323 56.0547C130.409 56.7852 130.613 57.3545 130.936 57.7627C131.279 58.1924 131.784 58.4824 132.45 58.6328C133.116 58.8047 134.051 58.9121 135.254 58.9551V60.1797H119.592V58.9551C120.795 58.9121 121.74 58.8154 122.428 58.665C123.115 58.5146 123.631 58.2246 123.975 57.7949C124.318 57.3867 124.533 56.8066 124.619 56.0547C124.705 55.3027 124.748 54.3145 124.748 53.0898V25.1494C124.748 24.333 124.737 23.667 124.716 23.1514C124.716 22.6143 124.684 22.1738 124.619 21.8301C124.555 21.4863 124.447 21.207 124.297 20.9922C124.146 20.7559 123.942 20.541 123.685 20.3477C123.513 20.2188 123.319 20.1221 123.104 20.0576C122.911 19.9717 122.664 19.9287 122.363 19.9287C121.783 19.9287 121.053 20.1113 120.172 20.4766L119.785 19.3809L129.002 15.707H130.227V22.6035C130.979 21.3145 131.73 20.2295 132.482 19.3486C133.234 18.4463 133.997 17.7266 134.771 17.1895C135.544 16.6309 136.339 16.2334 137.155 15.9971C137.972 15.7607 138.831 15.6426 139.733 15.6426C141.366 15.6426 142.859 16.0186 144.213 16.7705C145.566 17.501 146.727 18.5215 147.693 19.832C148.682 21.1211 149.444 22.6465 149.981 24.4082C150.519 26.1699 150.787 28.0713 150.787 30.1123ZM155.524 46V44.7754C156.513 44.7754 157.243 44.7217 157.716 44.6143C158.188 44.5068 158.597 44.2275 158.94 43.7764C159.069 43.6045 159.188 43.4111 159.295 43.1963C159.402 42.96 159.499 42.6699 159.585 42.3262C159.671 41.9824 159.735 41.5742 159.778 41.1016C159.821 40.6074 159.843 40.0166 159.843 39.3291V12.5488C159.843 11.1953 159.821 10.0566 159.778 9.13281C159.757 8.20898 159.714 7.44629 159.649 6.84473C159.585 6.24316 159.488 5.78125 159.359 5.45898C159.252 5.13672 159.112 4.91113 158.94 4.78223C158.597 4.50293 158.156 4.36328 157.619 4.36328C157.361 4.36328 157.061 4.40625 156.717 4.49219C156.373 4.55664 155.976 4.6748 155.524 4.84668L154.944 3.68652L163.839 0.141602H165.225V39.3291C165.225 39.9736 165.235 40.5322 165.257 41.0049C165.3 41.4561 165.354 41.8535 165.418 42.1973C165.482 42.5195 165.568 42.7988 165.676 43.0352C165.783 43.25 165.912 43.4541 166.062 43.6475C166.213 43.8408 166.385 44.0127 166.578 44.1631C166.771 44.292 167.019 44.4102 167.319 44.5176C167.62 44.6035 167.985 44.668 168.415 44.7109C168.845 44.7539 169.371 44.7754 169.994 44.7754V46H155.524ZM192.134 25.7617C192.134 24.1289 191.897 22.8076 191.425 21.7979C190.952 20.7666 190.383 19.9609 189.717 19.3809C189.051 18.8008 188.353 18.4033 187.622 18.1885C186.892 17.9736 186.258 17.8662 185.721 17.8662C184.84 17.8662 183.991 18.0381 183.175 18.3818C182.358 18.7256 181.617 19.2305 180.951 19.8965C180.285 20.5625 179.727 21.3896 179.275 22.3779C178.824 23.3662 178.534 24.4941 178.405 25.7617H192.134ZM198.869 35.2041C198.654 36.6436 198.214 38.0723 197.548 39.4902C196.903 40.8867 196.055 42.1436 195.002 43.2607C193.971 44.3564 192.757 45.248 191.36 45.9355C189.964 46.623 188.417 46.9668 186.72 46.9668C184.979 46.9668 183.325 46.6123 181.757 45.9033C180.188 45.1729 178.813 44.1416 177.632 42.8096C176.472 41.4561 175.548 39.834 174.86 37.9434C174.173 36.0527 173.829 33.9258 173.829 31.5625C173.829 29.0703 174.162 26.8359 174.828 24.8594C175.516 22.8828 176.461 21.207 177.664 19.832C178.889 18.457 180.339 17.4043 182.015 16.6738C183.69 15.9434 185.527 15.5781 187.525 15.5781C189.158 15.5781 190.662 15.8574 192.037 16.416C193.434 16.9531 194.637 17.7373 195.646 18.7686C196.656 19.7998 197.44 21.0566 197.999 22.5391C198.579 24.0215 198.869 25.6973 198.869 27.5664H178.405C178.405 29.7793 178.695 31.7559 179.275 33.4961C179.855 35.2363 180.64 36.708 181.628 37.9111C182.616 39.1143 183.755 40.0381 185.044 40.6826C186.354 41.3057 187.729 41.6172 189.169 41.6172C190.136 41.6172 191.027 41.5098 191.844 41.2949C192.682 41.0586 193.455 40.6719 194.164 40.1348C194.873 39.5762 195.528 38.8457 196.13 37.9434C196.753 37.041 197.322 35.9131 197.838 34.5596L198.869 35.2041ZM250.109 1.26953V16.416H248.917C248.702 14.3535 248.24 12.5381 247.531 10.9697C246.822 9.40137 245.92 8.09082 244.824 7.03809C243.75 5.96387 242.525 5.1582 241.15 4.62109C239.775 4.08398 238.314 3.81543 236.768 3.81543C235.715 3.81543 234.716 3.99805 233.771 4.36328C232.847 4.72852 232.041 5.22266 231.354 5.8457C230.666 6.44727 230.118 7.15625 229.71 7.97266C229.302 8.78906 229.098 9.64844 229.098 10.5508C229.098 11.4102 229.259 12.2051 229.581 12.9355C229.903 13.6445 230.473 14.3857 231.289 15.1592C232.105 15.9111 233.212 16.7275 234.608 17.6084C236.005 18.4893 237.788 19.5098 239.958 20.6699C242.042 21.7871 243.761 22.7754 245.114 23.6348C246.489 24.4727 247.563 25.1816 248.337 25.7617C249.819 26.8574 250.969 28.1895 251.785 29.7578C252.623 31.3262 253.042 33.0234 253.042 34.8496C253.042 36.5039 252.698 38.0723 252.011 39.5547C251.345 41.0371 250.399 42.3369 249.175 43.4541C247.95 44.5498 246.489 45.4199 244.792 46.0645C243.116 46.709 241.269 47.0312 239.249 47.0312C237.767 47.0312 236.413 46.9023 235.188 46.6445C233.964 46.3867 232.868 46.0967 231.901 45.7744C230.935 45.4521 230.086 45.1621 229.355 44.9043C228.625 44.6465 228.002 44.5176 227.486 44.5176C226.971 44.5176 226.552 44.7002 226.229 45.0654C225.907 45.4092 225.671 46.0645 225.521 47.0312H224.36V32.0137H225.521C225.8 34.2695 226.337 36.1924 227.132 37.7822C227.948 39.3506 228.937 40.6396 230.097 41.6494C231.278 42.6377 232.589 43.3574 234.028 43.8086C235.489 44.2598 236.993 44.4854 238.54 44.4854C239.872 44.4854 241.075 44.292 242.149 43.9053C243.224 43.5186 244.137 43.0029 244.889 42.3584C245.662 41.6924 246.253 40.9297 246.661 40.0703C247.069 39.2109 247.273 38.2979 247.273 37.3311C247.273 36.2568 247.08 35.3115 246.693 34.4951C246.328 33.6787 245.727 32.8945 244.889 32.1426C244.051 31.3691 242.955 30.5742 241.602 29.7578C240.27 28.9199 238.647 27.9639 236.735 26.8896C234.114 25.4287 231.977 24.1289 230.322 22.9902C228.689 21.8301 227.4 20.7236 226.455 19.6709C225.51 18.5967 224.865 17.5225 224.521 16.4482C224.178 15.3525 224.006 14.1279 224.006 12.7744C224.006 11.2275 224.296 9.7666 224.876 8.3916C225.478 6.99512 226.326 5.77051 227.422 4.71777C228.539 3.66504 229.882 2.82715 231.45 2.2041C233.019 1.58105 234.78 1.26953 236.735 1.26953C238.024 1.26953 239.185 1.39844 240.216 1.65625C241.247 1.91406 242.171 2.19336 242.987 2.49414C243.804 2.79492 244.523 3.07422 245.146 3.33203C245.791 3.58984 246.35 3.71875 246.822 3.71875C247.316 3.71875 247.725 3.54688 248.047 3.20312C248.391 2.83789 248.681 2.19336 248.917 1.26953H250.109ZM283.657 34.7852C283.378 36.5684 282.852 38.2119 282.078 39.7158C281.305 41.1982 280.359 42.4766 279.242 43.5508C278.146 44.625 276.911 45.4629 275.536 46.0645C274.183 46.666 272.786 46.9668 271.347 46.9668C269.606 46.9668 267.974 46.6016 266.448 45.8711C264.923 45.1191 263.591 44.0664 262.452 42.7129C261.313 41.3379 260.411 39.6836 259.745 37.75C259.101 35.8164 258.778 33.6572 258.778 31.2725C258.778 28.9307 259.154 26.8037 259.906 24.8916C260.658 22.958 261.668 21.3145 262.936 19.9609C264.225 18.5859 265.718 17.5225 267.415 16.7705C269.134 16.0186 270.949 15.6426 272.861 15.6426C275.805 15.6426 278.2 16.4053 280.048 17.9307C280.972 18.6826 281.681 19.4561 282.175 20.251C282.669 21.0459 282.916 21.8516 282.916 22.668C282.916 23.4199 282.669 24.0645 282.175 24.6016C281.681 25.1387 280.918 25.4072 279.887 25.4072C279.564 25.4072 279.21 25.375 278.823 25.3105C278.437 25.2461 278.071 25.0957 277.728 24.8594C277.384 24.6016 277.072 24.2256 276.793 23.7314C276.535 23.2158 276.374 22.5176 276.31 21.6367C276.202 20.4766 275.794 19.542 275.085 18.833C274.397 18.1025 273.312 17.7373 271.83 17.7373C270.605 17.7373 269.51 18.0166 268.543 18.5752C267.576 19.1123 266.76 19.8643 266.094 20.8311C265.428 21.7764 264.923 22.9043 264.579 24.2148C264.235 25.5254 264.063 26.9434 264.063 28.4688C264.063 30.209 264.268 31.8848 264.676 33.4961C265.105 35.1074 265.729 36.5361 266.545 37.7822C267.361 39.0068 268.36 39.9844 269.542 40.7148C270.724 41.4453 272.088 41.8105 273.635 41.8105C274.537 41.8105 275.396 41.7139 276.213 41.5205C277.051 41.3057 277.846 40.9189 278.598 40.3604C279.35 39.8018 280.069 39.0391 280.757 38.0723C281.466 37.084 282.143 35.8271 282.787 34.3018L283.657 34.7852ZM296.548 15.6426V22.249C298.997 17.8447 301.543 15.6426 304.186 15.6426C304.766 15.6426 305.313 15.7285 305.829 15.9004C306.345 16.0723 306.785 16.3193 307.15 16.6416C307.537 16.9424 307.838 17.3184 308.053 17.7695C308.268 18.1992 308.375 18.6719 308.375 19.1875C308.375 19.5742 308.3 19.9502 308.149 20.3154C307.999 20.6807 307.784 21.0029 307.505 21.2822C307.247 21.54 306.936 21.7549 306.57 21.9268C306.227 22.0986 305.851 22.1846 305.442 22.1846C304.905 22.1846 304.422 22.0664 303.992 21.8301C303.584 21.5938 303.208 21.3359 302.864 21.0566C302.521 20.7559 302.188 20.4873 301.865 20.251C301.543 20.0146 301.21 19.8965 300.866 19.8965C300.329 19.8965 299.674 20.3477 298.9 21.25C298.148 22.1309 297.364 23.3555 296.548 24.9238V39.1357C296.548 40.0811 296.623 40.9082 296.773 41.6172C296.924 42.3047 297.192 42.8848 297.579 43.3574C297.966 43.8301 298.492 44.1846 299.158 44.4209C299.846 44.6572 300.716 44.7754 301.769 44.7754V46H286.429V44.7754C287.353 44.7754 288.115 44.7324 288.717 44.6465C289.34 44.5391 289.823 44.3027 290.167 43.9375C290.532 43.5723 290.79 43.0352 290.94 42.3262C291.091 41.5957 291.166 40.5967 291.166 39.3291V27.8887C291.166 26.3418 291.145 25.1172 291.102 24.2148C291.08 23.291 291.026 22.5713 290.94 22.0557C290.876 21.54 290.779 21.1641 290.65 20.9277C290.521 20.6914 290.371 20.4766 290.199 20.2832C289.963 20.1543 289.705 20.0469 289.426 19.9609C289.168 19.875 288.878 19.832 288.556 19.832C287.976 19.832 287.267 20.0039 286.429 20.3477L286.139 19.1875L295.291 15.6426H296.548ZM332.642 46.9668H331.191V40.6504C329.945 41.9609 328.85 43.0244 327.904 43.8408C326.98 44.6572 326.132 45.3018 325.358 45.7744C324.606 46.2256 323.897 46.5371 323.231 46.709C322.565 46.8809 321.878 46.9668 321.169 46.9668C319.45 46.9668 318.086 46.5908 317.076 45.8389C316.066 45.0869 315.293 44.1416 314.756 43.0029C314.24 41.8428 313.907 40.5967 313.757 39.2646C313.606 37.9111 313.531 36.6436 313.531 35.4619V22.249C313.531 21.2822 313.445 20.498 313.273 19.8965C313.102 19.2949 312.812 18.833 312.403 18.5107C312.017 18.1885 311.501 17.9736 310.856 17.8662C310.212 17.7373 309.428 17.6729 308.504 17.6729V16.4805H318.913V36.2354C318.913 37.0732 318.967 37.9004 319.074 38.7168C319.182 39.5117 319.407 40.2314 319.751 40.876C320.116 41.499 320.61 42.0039 321.233 42.3906C321.878 42.7773 322.737 42.9707 323.812 42.9707C324.241 42.9707 324.703 42.9062 325.197 42.7773C325.713 42.6484 326.271 42.4229 326.873 42.1006C327.496 41.7783 328.162 41.3486 328.871 40.8115C329.58 40.2744 330.354 39.5977 331.191 38.7812V21.9912C331.191 21.0889 331.095 20.3691 330.901 19.832C330.729 19.2734 330.45 18.8438 330.063 18.543C329.677 18.2207 329.183 18.0059 328.581 17.8984C327.979 17.7695 327.26 17.6943 326.422 17.6729V16.4805H336.573V38.1689C336.573 39.0498 336.605 39.7803 336.67 40.3604C336.756 40.9189 336.874 41.3701 337.024 41.7139C337.196 42.0576 337.4 42.2939 337.637 42.4229C337.895 42.5518 338.206 42.6162 338.571 42.6162C338.872 42.6162 339.259 42.584 339.731 42.5195C340.204 42.4336 340.677 42.3047 341.149 42.1328L341.601 43.2607L332.642 46.9668ZM378.113 46V44.7754C379.102 44.7754 379.907 44.7002 380.53 44.5498C381.153 44.3779 381.637 44.0986 381.98 43.7119C382.324 43.3252 382.55 42.8096 382.657 42.165C382.786 41.499 382.851 40.6611 382.851 39.6514V26.5674C382.851 25.2568 382.743 24.1504 382.528 23.248C382.335 22.3242 382.034 21.583 381.626 21.0244C381.239 20.4658 380.734 20.0684 380.111 19.832C379.51 19.5742 378.801 19.4453 377.984 19.4453C377.49 19.4453 376.964 19.5098 376.405 19.6387C375.847 19.7461 375.245 19.9502 374.601 20.251C373.978 20.5518 373.312 20.96 372.603 21.4756C371.894 21.9912 371.142 22.6465 370.347 23.4414V39.6514C370.347 40.7256 370.4 41.5957 370.508 42.2617C370.615 42.9277 370.83 43.4434 371.152 43.8086C371.496 44.1738 371.979 44.4316 372.603 44.582C373.226 44.7109 374.053 44.7754 375.084 44.7754V46H360.131V44.7754C361.162 44.7754 361.989 44.7109 362.612 44.582C363.235 44.4531 363.719 44.2061 364.062 43.8408C364.428 43.4756 364.664 42.96 364.771 42.2939C364.9 41.6064 364.965 40.7256 364.965 39.6514V26.5674C364.965 25.2568 364.847 24.1504 364.61 23.248C364.374 22.3242 364.041 21.583 363.611 21.0244C363.182 20.4443 362.655 20.0254 362.032 19.7676C361.409 19.5098 360.711 19.3809 359.938 19.3809C359.164 19.3809 358.412 19.5098 357.682 19.7676C356.973 20.0039 356.296 20.3154 355.651 20.7021C355.028 21.0889 354.438 21.5293 353.879 22.0234C353.32 22.4961 352.815 22.9688 352.364 23.4414V39.3291C352.364 40.5752 352.429 41.5635 352.558 42.2939C352.708 43.0029 352.955 43.5508 353.299 43.9375C353.664 44.3027 354.158 44.5391 354.781 44.6465C355.404 44.7324 356.188 44.7754 357.134 44.7754V46H342.535V44.7754C343.459 44.7754 344.211 44.7109 344.791 44.582C345.371 44.4316 345.822 44.1631 346.145 43.7764C346.467 43.3896 346.682 42.8418 346.789 42.1328C346.896 41.4238 346.95 40.4893 346.95 39.3291V28.0176C346.95 25.9551 346.907 24.3115 346.821 23.0869C346.757 21.8623 346.499 20.9277 346.048 20.2832C345.919 20.1113 345.736 20.0039 345.5 19.9609C345.285 19.8965 345.038 19.8643 344.759 19.8643C344.2 19.8643 343.459 20.0254 342.535 20.3477L341.987 19.1875L350.979 15.6426H352.364V21.8623C353.567 20.5732 354.642 19.5312 355.587 18.7363C356.532 17.9199 357.402 17.2861 358.197 16.835C358.992 16.3623 359.733 16.0508 360.421 15.9004C361.13 15.7285 361.86 15.6426 362.612 15.6426C363.472 15.6426 364.299 15.7715 365.094 16.0293C365.91 16.2656 366.641 16.6416 367.285 17.1572C367.951 17.6514 368.521 18.2959 368.993 19.0908C369.487 19.8643 369.853 20.7881 370.089 21.8623C371.185 20.6162 372.184 19.5957 373.086 18.8008C373.988 17.9844 374.848 17.3398 375.664 16.8672C376.48 16.3945 377.275 16.0723 378.049 15.9004C378.822 15.7285 379.617 15.6426 380.434 15.6426C381.615 15.6426 382.689 15.8359 383.656 16.2227C384.623 16.6094 385.439 17.2432 386.105 18.124C386.793 18.9834 387.319 20.1113 387.685 21.5078C388.05 22.8828 388.232 24.5693 388.232 26.5674V39.6514C388.232 40.79 388.297 41.6924 388.426 42.3584C388.555 43.0244 388.791 43.54 389.135 43.9053C389.479 44.2705 389.93 44.5068 390.488 44.6143C391.068 44.7217 391.81 44.7754 392.712 44.7754V46H378.113Z" fill="#C51330"/>
</svg>
